<?xml version="1.0" encoding="utf-8"?><!DOCTYPE svg PUBLIC "-//W3C//DTD SVG 1.1//EN" "http://www.w3.org/Graphics/SVG/1.1/DTD/svg11.dtd"><svg viewBox="0 0 512 512" xmlns="http://www.w3.org/2000/svg" xmlns:xlink="http://www.w3.org/1999/xlink"><style>:root>svg{display:none}:root>svg:target{display:block}</style><svg viewBox="0 0 24 24" id="instagram" xmlns="http://www.w3.org/2000/svg"><linearGradient id="aa" gradientTransform="matrix(0 -1.982 -1.844 0 -132.522 -51.077)" gradientUnits="userSpaceOnUse" x1="-37.106" x2="-26.555" y1="-72.705" y2="-84.047"><stop offset="0" stop-color="#fd5"/><stop offset=".5" stop-color="#ff543e"/><stop offset="1" stop-color="#c837ab"/></linearGradient><path d="M1.5 1.633C-.386 3.592 0 5.673 0 11.995c0 5.25-.916 10.513 3.878 11.752 1.497.385 14.761.385 16.256-.002 1.996-.515 3.62-2.134 3.842-4.957.031-.394.031-13.185-.001-13.587-.236-3.007-2.087-4.74-4.526-5.091C18.89.029 18.778.005 15.91 0 5.737.005 3.507-.448 1.5 1.633z" fill="url(#aa)"/><path d="M11.998 3.139c-3.631 0-7.079-.323-8.396 3.057-.544 1.396-.465 3.209-.465 5.805 0 2.278-.073 4.419.465 5.804 1.314 3.382 4.79 3.058 8.394 3.058 3.477 0 7.062.362 8.395-3.058.545-1.41.465-3.196.465-5.804 0-3.462.191-5.697-1.488-7.375-1.7-1.7-3.999-1.487-7.374-1.487zm-.794 1.597c7.574-.012 8.538-.854 8.006 10.843-.189 4.137-3.339 3.683-7.211 3.683-7.06 0-7.263-.202-7.263-7.265 0-7.145.56-7.257 6.468-7.263zm5.524 1.471a1.063 1.063 0 100 2.126 1.063 1.063 0 000-2.126zm-4.73 1.243a4.55 4.55 0 10.001 9.101 4.55 4.55 0 00-.001-9.101zm0 1.597c3.905 0 3.91 5.908 0 5.908-3.904 0-3.91-5.908 0-5.908z" fill="#fff"/></svg><svg viewBox="0 0 163.861 163.861" id="play" xmlns="http://www.w3.org/2000/svg"><path fill="#df5a00" d="M34.857 3.613C20.084-4.861 8.107 2.081 8.107 19.106v125.637c0 17.042 11.977 23.975 26.75 15.509L144.67 97.275c14.778-8.477 14.778-22.211 0-30.686L34.857 3.613z"/></svg><svg viewBox="0 0 515.558 515.558" id="search" xmlns="http://www.w3.org/2000/svg"><path fill="#df5a00" d="M378.344 332.78c25.37-34.645 40.545-77.2 40.545-123.333C418.889 93.963 324.928.002 209.444.002S0 93.963 0 209.447s93.961 209.445 209.445 209.445c46.133 0 88.692-15.177 123.337-40.547l137.212 137.212 45.564-45.564L378.344 332.78zm-168.899 21.667c-79.958 0-145-65.042-145-145s65.042-145 145-145 145 65.042 145 145-65.043 145-145 145z"/></svg><svg viewBox="0 0 24 24" id="telegram" xmlns="http://www.w3.org/2000/svg"><circle cx="12" cy="12" fill="#039be5" r="12"/><path d="M7.5 13.5l-3-1.913 13-5.087-2 11-4-2-2 2v-3l3.281-3.281z" fill="#fff"/><path d="M12 24c6.617 0 12-5.383 12-12S18.617 0 12 0 0 5.383 0 12s5.383 12 12 12zm0-22.5c5.79 0 10.5 4.71 10.5 10.5S17.79 22.5 12 22.5 1.5 17.79 1.5 12 6.21 1.5 12 1.5z"/><path d="M7.896 14.155l1.568-.681-.44.441a.75.75 0 00-.22.53v2.935c0 .672.812.998 1.28.53l1.574-1.574 3.43 1.715a.75.75 0 001.073-.537l1.957-10.761a.751.751 0 00-1.012-.833L4.39 10.897a.75.75 0 00-.13 1.331L7.194 14.1c.21.134.475.155.702.055zm8.506-6.347l-1.537 8.455-3.02-1.509a.748.748 0 00-.865.141l-.676.676v-.813l3.007-3.007c.583-.583-.073-1.545-.829-1.218l-4.817 2.09-1.354-.864z"/></svg><svg viewBox="-40 0 512 512" id="timer" xmlns="http://www.w3.org/2000/svg"><path fill="#df5a00" d="M382.867 157.379l20.074-20.074c7.801-7.801 7.801-20.45 0-28.246-7.8-7.801-20.445-7.801-28.246 0l-20.074 20.074c-33.68-28.063-74.605-45.016-118.262-48.985V39.95h19.309c11.031 0 19.973-8.945 19.973-19.976S266.699 0 255.668 0h-78.566c-11.032 0-19.973 8.941-19.973 19.973s8.941 19.976 19.973 19.976h19.308v40.2C87.13 90.085 0 181.89 0 295.612 0 415.207 96.777 512 216.387 512c119.59 0 216.383-96.777 216.383-216.387 0-51.086-17.594-99.465-49.903-138.234zM216.383 472.05c-97.285 0-176.438-79.149-176.438-176.438 0-97.285 79.153-176.433 176.438-176.433 97.289 0 176.437 79.148 176.437 176.433 0 97.29-79.148 176.438-176.437 176.438zm92.566-269c7.801 7.8 7.801 20.449 0 28.246l-78.441 78.441c-7.801 7.801-20.45 7.801-28.246 0-7.801-7.8-7.801-20.449 0-28.246l78.437-78.441c7.801-7.801 20.45-7.801 28.25 0zm0 0"/></svg><svg viewBox="0 0 460.8 460.8" id="user" xmlns="http://www.w3.org/2000/svg"><path fill="#df5a00" d="M230.432 0c-65.829 0-119.641 53.812-119.641 119.641s53.812 119.641 119.641 119.641 119.641-53.812 119.641-119.641S296.261 0 230.432 0zM435.755 334.89c-3.135-7.837-7.314-15.151-12.016-21.943-24.033-35.527-61.126-59.037-102.922-64.784-5.224-.522-10.971.522-15.151 3.657-21.943 16.196-48.065 24.555-75.233 24.555s-53.29-8.359-75.233-24.555c-4.18-3.135-9.927-4.702-15.151-3.657-41.796 5.747-79.412 29.257-102.922 64.784-4.702 6.792-8.882 14.629-12.016 21.943-1.567 3.135-1.045 6.792.522 9.927 4.18 7.314 9.404 14.629 14.106 20.898 7.314 9.927 15.151 18.808 24.033 27.167 7.314 7.314 15.673 14.106 24.033 20.898 41.273 30.825 90.906 47.02 142.106 47.02s100.833-16.196 142.106-47.02c8.359-6.269 16.718-13.584 24.033-20.898 8.359-8.359 16.718-17.241 24.033-27.167 5.224-6.792 9.927-13.584 14.106-20.898 2.611-3.135 3.133-6.793 1.566-9.927z"/></svg><svg viewBox="0 0 512 512" id="vk" xmlns="http://www.w3.org/2000/svg"><path d="M446 502H66c-30.928 0-56-25.072-56-56V66c0-30.928 25.072-56 56-56h380c30.928 0 56 25.072 56 56v380c0 30.928-25.072 56-56 56z" fill="#2d82c8"/><path d="M94.397 163h43.393a15.485 15.485 0 0114.765 10.81c4.356 13.733 12.998 38.213 25.111 59.524 9.837 17.306 21.765 31.824 30.56 41.433 4.41 4.818 12.44 1.682 12.44-4.85v-62.622a43.901 43.901 0 00-8.24-25.605l-4.246-5.914A8.07 8.07 0 01214.736 163h60.68c5.477 0 9.917 4.44 9.917 9.917v80.28c0 5.211 5.39 8.676 10.131 6.512l4.127-1.884a6.018 6.018 0 001.886-1.352 266.38 266.38 0 0050.001-75.575l4.538-10.34a12.62 12.62 0 0111.57-7.548l42.844.05c8.037.009 13.166 8.578 9.378 15.666l-19.794 37.037a134.454 134.454 0 01-8.529 13.868l-23.164 33.008a14.464 14.464 0 001.865 18.783l16.964 16.154a208.507 208.507 0 0134.038 42.124l5.075 8.289c4.738 7.739-.831 17.678-9.905 17.678h-36.989a27.704 27.704 0 01-19.862-8.39l-36.986-38.031a53.662 53.662 0 00-26.964-15.002c-5.252-1.153-10.224 2.846-10.224 8.223v37.366c0 8.745-7.089 15.833-15.833 15.833a141.27 141.27 0 01-85.827-29.06 254.133 254.133 0 01-90.217-132.943l-8.094-28.731C83.674 168.943 88.175 163 94.397 163z" fill="#fff"/><path d="M416.358 375.667h-36.989c-10.122 0-19.974-4.162-27.03-11.417l-36.986-38.03a43.52 43.52 0 00-20.02-11.74v35.354c0 14.244-11.589 25.833-25.833 25.833-33.029 0-65.667-11.051-91.902-31.117a264.86 264.86 0 01-28.132-24.878c-3.866-3.943-3.804-10.275.14-14.142 3.945-3.867 10.276-3.802 14.142.14a244.9 244.9 0 0026.001 22.994c22.767 17.413 51.09 27.003 79.752 27.003a5.84 5.84 0 005.833-5.833v-37.366a18.335 18.335 0 016.876-14.353 18.332 18.332 0 0115.493-3.637 63.48 63.48 0 0131.988 17.797l36.986 38.03a17.8 17.8 0 0012.692 5.361h36.989c.233 0 .945 0 1.407-.825s.091-1.432-.031-1.631l-5.074-8.289a198.62 198.62 0 00-32.406-40.104l-16.964-16.154c-8.839-8.417-10.166-21.778-3.154-31.77l23.164-33.008a125.189 125.189 0 007.896-12.838l19.794-37.036c.068-.129.173-.323-.016-.638-.188-.314-.409-.315-.555-.315l-42.845-.049h-.003c-1.039 0-1.98.614-2.397 1.566l-4.538 10.34a275.711 275.711 0 01-51.878 78.413 15.946 15.946 0 01-5.018 3.594l-4.123 1.882a17.082 17.082 0 01-16.403-1.175 17.087 17.087 0 01-7.881-14.434V173h-56.835l2.053 2.858c6.617 9.217 10.116 20.088 10.116 31.437v62.622c0 7.137-4.3 13.42-10.954 16.005-6.646 2.584-14.05.853-18.862-4.404-8.784-9.596-21.443-24.888-31.877-43.244-12.717-22.371-21.717-48.098-25.95-61.441a5.47 5.47 0 00-5.233-3.833H95.206l7.875 27.951a244.683 244.683 0 0018.734 47.098c2.563 4.892.676 10.936-4.217 13.499-4.894 2.563-10.936.674-13.498-4.217a264.6 264.6 0 01-20.27-50.957l-8.095-28.73c-1.661-5.897-.492-12.079 3.205-16.962C82.64 155.8 88.272 153 94.396 153h43.394c11.159 0 20.923 7.148 24.298 17.786 3.995 12.595 12.461 36.826 24.272 57.606 7.713 13.569 16.824 25.371 24.307 34.062v-55.159a33.7 33.7 0 00-6.363-19.772l-4.246-5.915a17.961 17.961 0 01-3.391-10.538c0-9.964 8.105-18.07 18.069-18.07h60.681c10.981 0 19.916 8.935 19.916 19.917v75.487a255.708 255.708 0 0046.988-71.525l4.538-10.34a22.62 22.62 0 0120.712-13.529h.026l42.845.049c7.318.008 13.933 3.763 17.691 10.042 3.76 6.28 3.944 13.883.494 20.337l-19.794 37.037a145.059 145.059 0 01-9.163 14.899l-23.164 33.008a4.438 4.438 0 00.575 5.797l16.965 16.154a218.599 218.599 0 0135.67 44.145l5.074 8.289a21.637 21.637 0 01.423 21.85 21.631 21.631 0 01-18.855 11.05z"/><path d="M131.938 293.381a9.988 9.988 0 01-8.136-4.174l8.127-5.827-8.17 5.768-.068-.096c-3.218-4.488-2.188-10.735 2.3-13.954 4.489-3.219 10.735-2.188 13.954 2.3l.111.155c3.218 4.488 2.188 10.735-2.3 13.954a9.959 9.959 0 01-5.818 1.874zM204.864 464h-81.5c-5.522 0-10-4.477-10-10s4.478-10 10-10h81.5c5.522 0 10 4.477 10 10s-4.477 10-10 10zM250.364 464h-.119c-5.522 0-10-4.477-10-10s4.478-10 10-10h.119c5.522 0 10 4.477 10 10s-4.477 10-10 10z"/><path d="M446 512H66c-36.393 0-66-29.607-66-66V66C0 29.607 29.607 0 66 0h380c36.393 0 66 29.607 66 66v380c0 36.393-29.607 66-66 66zM66 20c-25.364 0-46 20.636-46 46v380c0 25.364 20.636 46 46 46h380c25.364 0 46-20.636 46-46V66c0-25.364-20.636-46-46-46H66z"/></svg></svg>