<svg xmlns="http://www.w3.org/2000/svg" viewBox="0 0 1280 1024"><path d="M1036 404.2c13.2 41.3-506.4 36.3-605.7 122.9-35.1 26.3-28.1 50.9-28.1 50.9s-17.1-64.4 14-87.8c49.2-36.9 338.9-82.5 338.9-82.5s145.7-21.1 234.9-51.9c46.2-16 46 48.4 46 48.4z" fill="#d16b20"/><path d="M800 459.2L619 566.1c-1.6.9-3.5-.2-3.5-2l1.7-215.5c0-1.8 2-2.9 3.5-2L800 455.2c1.5.9 1.5 3.1 0 4z" fill="#ef6100"/><path d="M797.5 460.7L621.7 564.5c-2.7 1.6-6.2-.4-6.1-3.5v-8.4c3.5-21 7.1-57.3 19.4-68.6l84.8-77.1 77.8 46.8c2.6 1.6 2.5 5.4-.1 7z" fill="#f7741c"/><path d="M184.5 402.5s208.9-198.4 521.4-182.6c239 12.1 317.8 91.3 317.8 91.3s17.6 70.2 12.3 96.6c-31.6-24.6-126.4-96.6-310.8-107.1-284.4 0-366.9 86-430.1 140.5l8.8-75.5c0-.1-61.5-1.8-119.4 36.8z" fill="#fc821f"/><path d="M402.2 578s28.1 61.4 266.9 65c135.2 2 256.3-36.9 256.3-36.9L878 588.6l82.5-49.2s-170.2 40.7-284.4 47.4c-119.4 7-300.2 12.3-268.6-87.8-22.9 47.4-5.3 79-5.3 79z" fill="#ea751f"/><path d="M577.5 287.8c-.1 2.2-.2 3.3-.3 5.5-3.2 1-4.7 1.6-7.9 2.7 1.9-7.1 2.9-10.5 4.9-17 3.5-.5 5.3-.7 8.9-1.2-.5 6.2-.8 9.4-1.4 16.2-6.5 4-14.9 7.5-24.7 9.4-18.3 3.5-39.6-3.6-37.7-25.9 2-22.3 20.9-41.5 42.7-45.7 8.7-1.7 15.6-.9 22.3 1.6-.2 6.8-.3 10-.4 16.2-3.5.5-5.3.8-8.8 1.4-1.2-6.1-1.8-9.2-3-15.9 3.1.1 4.6.2 7.6.4-.1 2.4-.2 3.6-.3 5.9-5.2-3.6-9.8-4.8-14.9-3.8-15.1 3-24.1 20.1-24.8 34.3-.6 13 5.5 27 20.7 24.4 5.6-.9 11.4-4 17.1-8.5zm14.9-53.1c.1-2.3.2-3.5.3-5.9 12.1-1.7 24.4-3 36.6-3.9 0 2.3-.1 3.5-.1 5.8-6.9 1.2-10.3 1.8-17.1 3.2-1.4.1-2.1.2-3.4.4-6.6 0-9.8.1-16.3.4zm17.4 52.7c7.1.1 10.7.1 18.1.3 0 2.3-.1 3.5-.1 5.8-12.9 1-25.9 2-38.8 3.3.1-2.4.2-3.6.3-5.9 6.7-1.3 10.1-2 16.9-3.2 1.5-.2 2.2-.2 3.6-.3zm-10-27.5c.6-10.7 1.1-21.5 1.2-32.2 8.1-1 12.1-1.4 20.2-2.1-.7 10.8-1.1 21.6-1.4 32.4 0 1.2-.1 1.9-.1 3.1-.4 11-.7 22-.7 33-8.7.7-13 1-21.4 1.8.8-10.7 1.4-21.5 2-32.3.1-1.5.2-2.2.2-3.7zm9.8 2.9c.1-2.4.2-3.5.3-5.9 15.2-1.4 30.3-2.4 45.5-3.1v5.9c-15.3.7-30.5 1.8-45.8 3.1zm27.7-32.7c0-2.3 0-3.4.1-5.8 12.2-.7 24.4-1 36.6-.9 0 2.3 0 3.4.1 5.6-6.7.6-10 1-16.8 1.8-1.3 0-2 .1-3.3.1-6.7-.4-10.1-.5-16.7-.8zm19.9 54.2c6.9.4 10.4.6 17.4 1.1 0 2.2 0 3.4.1 5.6-12.8.3-25.5.9-38.2 1.7 0-2.3 0-3.5.1-5.8 7-1.1 10.4-1.6 17.4-2.6 1.2.1 1.9.1 3.2 0zm-11.8-28.1c.1-10.7.2-21.5-.1-32.3 8.1-.4 12.1-.5 20.2-.5-.3 10.7-.3 21.4-.2 32.1v3.8c0 10.7.1 21.4.5 32.1-8.4.3-12.6.5-21.1 1 .5-11 .6-22 .6-32.9.1-1.4.1-2 .1-3.3zm36.3-27.1c0-2.2 0-3.4-.1-5.6 12.5.2 25 .9 37.4 2 .1 2.2.1 3.3.2 5.4-6.9.1-10.3.1-17.2.4-1.4-.1-2.1-.1-3.4-.2-6.8-.8-10.2-1.2-16.9-2zm21.8 54.8c7.2.8 10.8 1.2 17.9 2.1.1 2.2.1 3.2.2 5.4-13-.5-26.1-.6-39.1-.4 0-2.3 0-3.4-.1-5.6 7-.7 10.5-1 17.5-1.5 1.5-.1 2.2-.1 3.6 0zm-12.3-28.5c-.2-10.6-.4-21.1-1-31.7 8.1.3 12.1.5 20.2 1.1 0 10.4.3 20.9.7 31.3.1 1.5.1 2.2.1 3.6.3 10.5.7 20.9 1.4 31.4-8.4-.2-12.7-.2-21.1-.2.2-10.6 0-21.1-.3-31.7v-3.8zm35.6-23.8c-.1-2.1-.2-3.2-.3-5.4 12.7 1.3 25.3 3 38 4.8.2 2.1.3 3.1.4 5.2-6.8-.3-10.2-.5-17-.7-1.7-.2-2.5-.3-4.2-.5-6.7-1.5-10.1-2.2-16.9-3.4zm22 54.4c.2 2.7.3 4 .4 6.7-7.8-.5-11.7-.7-19.6-1.1-.1-2.2-.2-3.2-.3-5.4 7-.2 10.5-.3 17.5-.4.8.1 1.2.2 2 .2zm-13.7-58.9c8 .9 12 1.5 20 2.6.4 10 1.1 20.1 1.8 30.1.1 2.1.2 3.1.4 5.1.7 9.6 1.4 19.1 2.4 28.7-8.5-.7-12.7-1-21.1-1.5-.2-9.5-.6-19.1-1.2-28.6-.1-2.3-.2-3.4-.3-5.7-.5-10.2-1.1-20.5-2-30.7zm56.7 51.7c.3 7.5.5 11.2.8 18.5-14.4-1.9-28.8-3.4-43.3-4.5-.1-2.2-.2-3.4-.4-5.6 13.1 1 26.1 2.4 39.1 4.2-3.4 1.7-5.2 2.5-8.7 4.3 1.2-7.2 1.8-10.9 3-18.2 3.8.4 5.7.7 9.5 1.3zm1.2-38.4c-.2-2-.3-3.1-.6-5.1 12.5 2.2 24.9 4.8 37.2 8 .3 2 .5 3 .8 5-6.6-1.2-9.9-1.7-16.5-2.5-1.7-.4-2.5-.5-4.2-.9-6.7-1.9-10-2.8-16.7-4.5zm24.9 54.8c.3 2.6.5 3.9.8 6.4-7.8-1.5-11.6-2.1-19.4-3.3-.2-2-.3-3-.6-5.1 6.9.5 10.4.8 17.3 1.6.8.2 1.2.3 1.9.4zm-17.1-58.4c7.9 1.5 11.8 2.3 19.6 4.2 1.1 9.8 2.4 19.7 3.8 29.5.3 2 .4 3.1.7 5.1 1.2 9.4 2.6 18.8 4.3 28.1-8.4-1.7-12.6-2.5-21-3.9-.8-9.4-2-19.5-2.9-27.6-.3-2.2-.4-3.4-.7-5.6-1-10-2.2-19.9-3.8-29.8zm58.7 56.7c.9 7.3 1.3 10.9 2.1 17.8-14.2-3.6-28.4-6.9-42.8-9.7-.3-2.1-.4-3.2-.7-5.3 13 2.5 25.8 5.4 38.6 8.8-3.2 1.1-4.9 1.7-8.1 2.9.7-6.7 1-10.1 1.6-17.1 3.7 1 5.5 1.5 9.3 2.6zM597.1 599c2.1-1.5 3.1-2.3 5.1-3.9 0 5.1 0 7.5-.1 12.1-2.6 0-4-.1-6.6-.1-.6-4.5-.9-6.8-1.7-11.8 15.2-.4 30.3-.4 45.5-.5.9 5.4 1.4 7.9 2.3 13h-6.5c-1.6-5-2.4-7.6-4.1-12.9 2.5 1.6 3.7 2.4 6.2 4-13.4 0-26.8-.1-40.1.1zm28.2 34.6c4.7.8 7.1 1.2 11.7 1.9.3 1.5.5 2.2.9 3.7-10.3-.8-15.5-1.3-25.9-2.7-.5-1.4-.7-2.1-1.1-3.5 4.4.1 6.6.2 11 .2 1.4.2 2.1.3 3.4.4zm-11.9-18.3c-1.1-6.4-2.1-13.1-3.5-20.3 5.3-.1 7.9-.1 13.2-.1 1 7.2 2 14 3.2 20.9.2.9.2 1.4.4 2.4 1.2 6.7 2.6 13.4 4.8 20.6-5.3-.5-7.9-.7-13.1-1.4-1.9-6.8-3.3-13.2-4.5-19.8-.2-1-.3-1.4-.5-2.3zm30.9-16.7c-.2-1.5-.4-2.3-.6-3.9 9.8-.2 19.7-.6 29.5-1 .1 1.7.2 2.5.3 4.1-5.3.6-9.1.8-14.3 1.5-1 0-1.6.1-2.6.1-5.1-.3-7.5-.5-12.3-.8zm19.3 37c4.5.5 8.8.7 13.9 1.1.2 1.6.3 2.4.4 4-11.2.1-17.1-.1-26.7-.6-.3-1.5-.4-2.3-.7-3.8 4.3-.2 6.5-.4 10.8-.7h2.3zm-10.3-19.4c-1-7-2.1-14.2-3.4-21.7 5.9-.2 9.5-.3 16.3-.6.4 7.6 1.2 14.9 2 22.2.1 1 .2 1.5.3 2.5.8 7.2 1.6 14.3 2.7 22-6.5-.1-9.3-.1-14.5-.3-1-7.3-2.1-14.4-3.1-21.6-.1-.9-.2-1.4-.3-2.5zm28.6 20.4c3.8-.5 5.6-.8 9.1-1.4.9 0 1.3-.1 2.1-.1 3 .3 4.4.5 7.2.7.2 1.6.3 2.4.4 4.1-6.8.4-10.3.5-18.4.6-.2-1.5-.2-2.3-.4-3.9zm-3.4-43.2c4.8-.2 7-.4 11.4-.7.1 2.3.2 3.4.4 5.6-.5 0-.7 0-1.2.1-3.9-.3-5.9-.5-10.2-.8-.3-1.6-.3-2.4-.4-4.2zm7.1-.3c1.8-.1 2.7-.2 4.4-.3.7 11.6 1.3 16.1 2.5 25.5.9 8.4 1.4 12.4 2.4 22-1.9.1-2.9.1-4.8.2-1.8-15.8-3.7-31.6-4.5-47.4zm.5-.1c5.3-.3 7.7-.5 12.7-.9 4 11.9 9.3 23.2 14.9 34.4-.9.1-1.4.1-2.3.2 3-12.7 7.3-25.1 11.4-37.5 2.2-.3 3.4-.5 5.8-.9-6.3 16.9-11.8 33.3-15.6 51-2 .1-3.1.2-5.1.3-7.2-15.6-15.1-30.8-21.8-46.6zm33.2 41.6c3.4-.7 4.8-1 9.3-1.9 1.6-.1 2.4-.2 4-.4 5.1 0 7.5.1 12.2.1v4.8c-10.2.8-16.6 1.1-25.2 1.6-.1-1.7-.1-2.6-.3-4.2zm4.2-17c-.4-9.6.1-19.1.5-28.6 5.7-.9 9-1.4 14.6-2.2-.6 10.4-.6 18-.5 25.1v2.5c.1 7.1.4 14.1.7 23.3-5.7.4-9.6.6-14.3.9-.3-8.7-.9-15.5-1-21zm7.6-29.7c5.6-.9 8.2-1.3 13.3-2 0 2.2-.1 3.2-.1 5.2-4.6 1.2-7 1.9-12.1 3.1-.6.1-.8.1-1.4.2.1-2.5.2-3.8.3-6.5zm18.7 2.3V585c5.1-.8 7.5-1.1 12.4-1.9.1 2.8.1 4.1.2 6.6-.5.1-.7.1-1.2.2-4.5.1-6.8.2-11.4.3zm12.9 38.8c-.1 2.5-.2 3.8-.4 6.5-4.8.6-7.3.8-12.3 1.3.1-2.1.1-3 .1-4.9 4.6-1 6.9-1.6 11.4-2.7.4-.1.7-.1 1.2-.2zm-6.4-19.8c-.1-7.1-.4-14.5-.7-25 5.4-.8 8-1.2 13.3-2 .2 10.4.6 17.7.7 24.9v2.3c.1 7.3-.2 14.7-.8 25.4-5.2.7-7.8 1-13.1 1.6.7-10 .7-17.3.6-24.6v-2.6zm24.9-28.9c2.5 1.9 3.7 2.8 6.3 4.5-10.6 1.7-15.3 2.4-25.1 3.9-.1-2.1-.1-3.2-.1-5.5 9.2-1.4 18.5-2.8 27.7-4.2.7 6.9 1 9.6 1.5 14.5-2.9.5-4.3.8-7 1.2-1.3-4.9-2-7.6-3.3-14.4zm-.7 27.3c-7.1 1.4-10.5 2-17.5 3.1 0-1.6 0-2.4-.1-4.1 7-1.1 10.4-1.7 17.5-3 .1 1.6.1 2.4.1 4zm12.1 7.1c-.8 5.4-1.3 8.4-2.8 16.1-11.1 2.6-16.4 3.4-27.5 4.8.1-2.3.2-3.3.3-5.4 10.3-1.4 15.2-2.3 25.5-4.6-2.5 2.7-3.8 4.1-6.2 6.9 1.8-7.7 2.6-10.7 4-16.3 2.6-.6 4-.9 6.7-1.5zm-14.6-9.5c.4-2.7.6-4 1-6.8 1.9-.3 2.8-.5 4.7-.8.3 6.1.3 8.6 0 14.7-1.9.4-2.8.6-4.6.9-.4-2.8-.6-4.1-1.1-6.7v-1.3z"/></svg>