<?xml version="1.0" encoding="utf-8"?>
<!-- Generator: Adobe Illustrator 22.1.0, SVG Export Plug-In . SVG Version: 6.00 Build 0)  -->
<svg version="1.1" xmlns="http://www.w3.org/2000/svg" xmlns:xlink="http://www.w3.org/1999/xlink" x="0px" y="0px"
	 viewBox="0 0 1280 1024" style="enable-background:new 0 0 1280 1024;" xml:space="preserve">
<style type="text/css">
	.st0{fill:#D16B20;}
	.st1{fill:#EF6100;}
	.st2{fill:#F7741C;}
	.st3{fill:#FC821F;}
	.st4{fill:#EA751F;}
</style>
<g id="Слой_5">
</g>
<g id="chill-лента">
	<path class="st0" d="M1036,404.2c13.2,41.3-506.4,36.3-605.7,122.9c-35.1,26.3-28.1,50.9-28.1,50.9s-17.1-64.4,14-87.8
		c49.2-36.9,338.9-82.5,338.9-82.5s145.7-21.1,234.9-51.9C1036.2,339.8,1036,404.2,1036,404.2z"/>
	<g id="Слой_3">
		<path class="st1" d="M800,459.2L619,566.1c-1.6,0.9-3.5-0.2-3.5-2l1.7-215.5c0-1.8,2-2.9,3.5-2L800,455.2
			C801.5,456.1,801.5,458.3,800,459.2z"/>
		<path class="st2" d="M797.5,460.7L621.7,564.5c-2.7,1.6-6.2-0.4-6.1-3.5v-8.4c3.5-21,7.1-57.3,19.4-68.6l84.8-77.1l77.8,46.8
			C800.2,455.3,800.1,459.1,797.5,460.7z"/>
	</g>
	<g id="Слой_4">
	</g>
	<path class="st3" d="M184.5,402.5c0,0,208.9-198.4,521.4-182.6c239,12.1,317.8,91.3,317.8,91.3s17.6,70.2,12.3,96.6
		c-31.6-24.6-126.4-96.6-310.8-107.1c-284.4,0-366.9,86-430.1,140.5l8.8-75.5C303.9,365.6,242.4,363.9,184.5,402.5z"/>
	<path class="st4" d="M402.2,578c0,0,28.1,61.4,266.9,65c135.2,2,256.3-36.9,256.3-36.9L878,588.6l82.5-49.2
		c0,0-170.2,40.7-284.4,47.4c-119.4,7-300.2,12.3-268.6-87.8C384.6,546.4,402.2,578,402.2,578z"/>
</g>
<g id="text">
	<g>
		<g>
			<path d="M577.5,287.8c-0.1,2.2-0.2,3.3-0.3,5.5c-3.2,1-4.7,1.6-7.9,2.7c1.9-7.1,2.9-10.5,4.9-17c3.5-0.5,5.3-0.7,8.9-1.2
				c-0.5,6.2-0.8,9.4-1.4,16.2c-6.5,4-14.9,7.5-24.7,9.4c-18.3,3.5-39.6-3.6-37.7-25.9c2-22.3,20.9-41.5,42.7-45.7
				c8.7-1.7,15.6-0.9,22.3,1.6c-0.2,6.8-0.3,10-0.4,16.2c-3.5,0.5-5.3,0.8-8.8,1.4c-1.2-6.1-1.8-9.2-3-15.9c3.1,0.1,4.6,0.2,7.6,0.4
				c-0.1,2.4-0.2,3.6-0.3,5.9c-5.2-3.6-9.8-4.8-14.9-3.8c-15.1,3-24.1,20.1-24.8,34.3c-0.6,13,5.5,27,20.7,24.4
				C566,295.4,571.8,292.3,577.5,287.8z"/>
			<path d="M592.4,234.7c0.1-2.3,0.2-3.5,0.3-5.9c12.1-1.7,24.4-3,36.6-3.9c0,2.3-0.1,3.5-0.1,5.8c-6.9,1.2-10.3,1.8-17.1,3.2
				c-1.4,0.1-2.1,0.2-3.4,0.4C602.1,234.3,598.9,234.4,592.4,234.7z M609.8,287.4c7.1,0.1,10.7,0.1,18.1,0.3c0,2.3-0.1,3.5-0.1,5.8
				c-12.9,1-25.9,2-38.8,3.3c0.1-2.4,0.2-3.6,0.3-5.9c6.7-1.3,10.1-2,16.9-3.2C607.7,287.5,608.4,287.5,609.8,287.4z M599.8,259.9
				c0.6-10.7,1.1-21.5,1.2-32.2c8.1-1,12.1-1.4,20.2-2.1c-0.7,10.8-1.1,21.6-1.4,32.4c0,1.2-0.1,1.9-0.1,3.1c-0.4,11-0.7,22-0.7,33
				c-8.7,0.7-13,1-21.4,1.8c0.8-10.7,1.4-21.5,2-32.3C599.7,262.1,599.8,261.4,599.8,259.9z M609.6,262.8c0.1-2.4,0.2-3.5,0.3-5.9
				c15.2-1.4,30.3-2.4,45.5-3.1c0,2.4,0,3.6,0,5.9C640.1,260.4,624.9,261.5,609.6,262.8z M637.3,230.1c0-2.3,0-3.4,0.1-5.8
				c12.2-0.7,24.4-1,36.6-0.9c0,2.3,0,3.4,0.1,5.6c-6.7,0.6-10,1-16.8,1.8c-1.3,0-2,0.1-3.3,0.1
				C647.3,230.5,643.9,230.4,637.3,230.1z M657.2,284.3c6.9,0.4,10.4,0.6,17.4,1.1c0,2.2,0,3.4,0.1,5.6c-12.8,0.3-25.5,0.9-38.2,1.7
				c0-2.3,0-3.5,0.1-5.8c7-1.1,10.4-1.6,17.4-2.6C655.2,284.4,655.9,284.4,657.2,284.3z M645.4,256.2c0.1-10.7,0.2-21.5-0.1-32.3
				c8.1-0.4,12.1-0.5,20.2-0.5c-0.3,10.7-0.3,21.4-0.2,32.1c0,1.5,0,2.3,0,3.8c0,10.7,0.1,21.4,0.5,32.1c-8.4,0.3-12.6,0.5-21.1,1
				c0.5-11,0.6-22,0.6-32.9C645.4,258.1,645.4,257.5,645.4,256.2z"/>
			<path d="M681.7,229.1c0-2.2,0-3.4-0.1-5.6c12.5,0.2,25,0.9,37.4,2c0.1,2.2,0.1,3.3,0.2,5.4c-6.9,0.1-10.3,0.1-17.2,0.4
				c-1.4-0.1-2.1-0.1-3.4-0.2C691.8,230.3,688.4,229.9,681.7,229.1z M703.5,283.9c7.2,0.8,10.8,1.2,17.9,2.1
				c0.1,2.2,0.1,3.2,0.2,5.4c-13-0.5-26.1-0.6-39.1-0.4c0-2.3,0-3.4-0.1-5.6c7-0.7,10.5-1,17.5-1.5
				C701.4,283.8,702.1,283.8,703.5,283.9z M691.2,255.4c-0.2-10.6-0.4-21.1-1-31.7c8.1,0.3,12.1,0.5,20.2,1.1
				c0,10.4,0.3,20.9,0.7,31.3c0.1,1.5,0.1,2.2,0.1,3.6c0.3,10.5,0.7,20.9,1.4,31.4c-8.4-0.2-12.7-0.2-21.1-0.2
				c0.2-10.6,0-21.1-0.3-31.7C691.2,257.7,691.2,256.9,691.2,255.4z"/>
			<path d="M726.8,231.6c-0.1-2.1-0.2-3.2-0.3-5.4c12.7,1.3,25.3,3,38,4.8c0.2,2.1,0.3,3.1,0.4,5.2c-6.8-0.3-10.2-0.5-17-0.7
				c-1.7-0.2-2.5-0.3-4.2-0.5C737,233.5,733.6,232.8,726.8,231.6z M748.8,286c0.2,2.7,0.3,4,0.4,6.7c-7.8-0.5-11.7-0.7-19.6-1.1
				c-0.1-2.2-0.2-3.2-0.3-5.4c7-0.2,10.5-0.3,17.5-0.4C747.6,285.9,748,286,748.8,286z M735.1,227.1c8,0.9,12,1.5,20,2.6
				c0.4,10,1.1,20.1,1.8,30.1c0.1,2.1,0.2,3.1,0.4,5.1c0.7,9.6,1.4,19.1,2.4,28.7c-8.5-0.7-12.7-1-21.1-1.5
				c-0.2-9.5-0.6-19.1-1.2-28.6c-0.1-2.3-0.2-3.4-0.3-5.7C736.6,247.6,736,237.3,735.1,227.1z M791.8,278.8
				c0.3,7.5,0.5,11.2,0.8,18.5c-14.4-1.9-28.8-3.4-43.3-4.5c-0.1-2.2-0.2-3.4-0.4-5.6c13.1,1,26.1,2.4,39.1,4.2
				c-3.4,1.7-5.2,2.5-8.7,4.3c1.2-7.2,1.8-10.9,3-18.2C786.1,277.9,788,278.2,791.8,278.8z"/>
			<path d="M793,240.4c-0.2-2-0.3-3.1-0.6-5.1c12.5,2.2,24.9,4.8,37.2,8c0.3,2,0.5,3,0.8,5c-6.6-1.2-9.9-1.7-16.5-2.5
				c-1.7-0.4-2.5-0.5-4.2-0.9C803,243,799.7,242.1,793,240.4z M817.9,295.2c0.3,2.6,0.5,3.9,0.8,6.4c-7.8-1.5-11.6-2.1-19.4-3.3
				c-0.2-2-0.3-3-0.6-5.1c6.9,0.5,10.4,0.8,17.3,1.6C816.8,295,817.2,295.1,817.9,295.2z M800.8,236.8c7.9,1.5,11.8,2.3,19.6,4.2
				c1.1,9.8,2.4,19.7,3.8,29.5c0.3,2,0.4,3.1,0.7,5.1c1.2,9.4,2.6,18.8,4.3,28.1c-8.4-1.7-12.6-2.5-21-3.9c-0.8-9.4-2-19.5-2.9-27.6
				c-0.3-2.2-0.4-3.4-0.7-5.6C803.6,256.6,802.4,246.7,800.8,236.8z M859.5,293.5c0.9,7.3,1.3,10.9,2.1,17.8
				c-14.2-3.6-28.4-6.9-42.8-9.7c-0.3-2.1-0.4-3.2-0.7-5.3c13,2.5,25.8,5.4,38.6,8.8c-3.2,1.1-4.9,1.7-8.1,2.9
				c0.7-6.7,1-10.1,1.6-17.1C853.9,291.9,855.7,292.4,859.5,293.5z"/>
		</g>
	</g>
	<g>
		<g>
			<path d="M597.1,599c2.1-1.5,3.1-2.3,5.1-3.9c0,5.1,0,7.5-0.1,12.1c-2.6,0-4-0.1-6.6-0.1c-0.6-4.5-0.9-6.8-1.7-11.8
				c15.2-0.4,30.3-0.4,45.5-0.5c0.9,5.4,1.4,7.9,2.3,13c-2.6,0-3.9,0-6.5,0c-1.6-5-2.4-7.6-4.1-12.9c2.5,1.6,3.7,2.4,6.2,4
				C623.8,598.9,610.4,598.8,597.1,599z M625.3,633.6c4.7,0.8,7.1,1.2,11.7,1.9c0.3,1.5,0.5,2.2,0.9,3.7
				c-10.3-0.8-15.5-1.3-25.9-2.7c-0.5-1.4-0.7-2.1-1.1-3.5c4.4,0.1,6.6,0.2,11,0.2C623.3,633.4,624,633.5,625.3,633.6z M613.4,615.3
				c-1.1-6.4-2.1-13.1-3.5-20.3c5.3-0.1,7.9-0.1,13.2-0.1c1,7.2,2,14,3.2,20.9c0.2,0.9,0.2,1.4,0.4,2.4c1.2,6.7,2.6,13.4,4.8,20.6
				c-5.3-0.5-7.9-0.7-13.1-1.4c-1.9-6.8-3.3-13.2-4.5-19.8C613.7,616.6,613.6,616.2,613.4,615.3z"/>
			<path d="M644.3,598.6c-0.2-1.5-0.4-2.3-0.6-3.9c9.8-0.2,19.7-0.6,29.5-1c0.1,1.7,0.2,2.5,0.3,4.1c-5.3,0.6-9.1,0.8-14.3,1.5
				c-1,0-1.6,0.1-2.6,0.1C651.5,599.1,649.1,598.9,644.3,598.6z M663.6,635.6c4.5,0.5,8.8,0.7,13.9,1.1c0.2,1.6,0.3,2.4,0.4,4
				c-11.2,0.1-17.1-0.1-26.7-0.6c-0.3-1.5-0.4-2.3-0.7-3.8c4.3-0.2,6.5-0.4,10.8-0.7C662.3,635.6,662.7,635.6,663.6,635.6z
				 M653.3,616.2c-1-7-2.1-14.2-3.4-21.7c5.9-0.2,9.5-0.3,16.3-0.6c0.4,7.6,1.2,14.9,2,22.2c0.1,1,0.2,1.5,0.3,2.5
				c0.8,7.2,1.6,14.3,2.7,22c-6.5-0.1-9.3-0.1-14.5-0.3c-1-7.3-2.1-14.4-3.1-21.6C653.5,617.8,653.4,617.3,653.3,616.2z"/>
			<path d="M681.9,636.6c3.8-0.5,5.6-0.8,9.1-1.4c0.9,0,1.3-0.1,2.1-0.1c3,0.3,4.4,0.5,7.2,0.7c0.2,1.6,0.3,2.4,0.4,4.1
				c-6.8,0.4-10.3,0.5-18.4,0.6C682.1,639,682.1,638.2,681.9,636.6z M678.5,593.4c4.8-0.2,7-0.4,11.4-0.7c0.1,2.3,0.2,3.4,0.4,5.6
				c-0.5,0-0.7,0-1.2,0.1c-3.9-0.3-5.9-0.5-10.2-0.8C678.6,596,678.6,595.2,678.5,593.4z M685.6,593.1c1.8-0.1,2.7-0.2,4.4-0.3
				c0.7,11.6,1.3,16.1,2.5,25.5c0.9,8.4,1.4,12.4,2.4,22c-1.9,0.1-2.9,0.1-4.8,0.2C688.3,624.7,686.4,608.9,685.6,593.1z M686.1,593
				c5.3-0.3,7.7-0.5,12.7-0.9c4,11.9,9.3,23.2,14.9,34.4c-0.9,0.1-1.4,0.1-2.3,0.2c3-12.7,7.3-25.1,11.4-37.5
				c2.2-0.3,3.4-0.5,5.8-0.9c-6.3,16.9-11.8,33.3-15.6,51c-2,0.1-3.1,0.2-5.1,0.3C700.7,624,692.8,608.8,686.1,593z M719.3,634.6
				c3.4-0.7,4.8-1,9.3-1.9c1.6-0.1,2.4-0.2,4-0.4c5.1,0,7.5,0.1,12.2,0.1c0,1.8,0,2.8,0,4.8c-10.2,0.8-16.6,1.1-25.2,1.6
				C719.5,637.1,719.5,636.2,719.3,634.6z M723.5,617.6c-0.4-9.6,0.1-19.1,0.5-28.6c5.7-0.9,9-1.4,14.6-2.2
				c-0.6,10.4-0.6,18-0.5,25.1c0,1,0,1.5,0,2.5c0.1,7.1,0.4,14.1,0.7,23.3c-5.7,0.4-9.6,0.6-14.3,0.9
				C724.2,629.9,723.6,623.1,723.5,617.6z M731.1,587.9c5.6-0.9,8.2-1.3,13.3-2c0,2.2-0.1,3.2-0.1,5.2c-4.6,1.2-7,1.9-12.1,3.1
				c-0.6,0.1-0.8,0.1-1.4,0.2C730.9,591.9,731,590.6,731.1,587.9z"/>
			<path d="M749.8,590.2c0-2,0-3,0-5.2c5.1-0.8,7.5-1.1,12.4-1.9c0.1,2.8,0.1,4.1,0.2,6.6c-0.5,0.1-0.7,0.1-1.2,0.2
				C756.7,590,754.4,590.1,749.8,590.2z M762.7,629c-0.1,2.5-0.2,3.8-0.4,6.5c-4.8,0.6-7.3,0.8-12.3,1.3c0.1-2.1,0.1-3,0.1-4.9
				c4.6-1,6.9-1.6,11.4-2.7C761.9,629.1,762.2,629.1,762.7,629z M756.3,609.2c-0.1-7.1-0.4-14.5-0.7-25c5.4-0.8,8-1.2,13.3-2
				c0.2,10.4,0.6,17.7,0.7,24.9c0,0.9,0,1.4,0,2.3c0.1,7.3-0.2,14.7-0.8,25.4c-5.2,0.7-7.8,1-13.1,1.6c0.7-10,0.7-17.3,0.6-24.6
				C756.3,610.7,756.3,610.2,756.3,609.2z M781.2,580.3c2.5,1.9,3.7,2.8,6.3,4.5c-10.6,1.7-15.3,2.4-25.1,3.9
				c-0.1-2.1-0.1-3.2-0.1-5.5c9.2-1.4,18.5-2.8,27.7-4.2c0.7,6.9,1,9.6,1.5,14.5c-2.9,0.5-4.3,0.8-7,1.2
				C783.2,589.8,782.5,587.1,781.2,580.3z M780.5,607.6c-7.1,1.4-10.5,2-17.5,3.1c0-1.6,0-2.4-0.1-4.1c7-1.1,10.4-1.7,17.5-3
				C780.5,605.2,780.5,606,780.5,607.6z M792.6,614.7c-0.8,5.4-1.3,8.4-2.8,16.1c-11.1,2.6-16.4,3.4-27.5,4.8
				c0.1-2.3,0.2-3.3,0.3-5.4c10.3-1.4,15.2-2.3,25.5-4.6c-2.5,2.7-3.8,4.1-6.2,6.9c1.8-7.7,2.6-10.7,4-16.3
				C788.5,615.6,789.9,615.3,792.6,614.7z M778,605.2c0.4-2.7,0.6-4,1-6.8c1.9-0.3,2.8-0.5,4.7-0.8c0.3,6.1,0.3,8.6,0,14.7
				c-1.9,0.4-2.8,0.6-4.6,0.9c-0.4-2.8-0.6-4.1-1.1-6.7C778,606,778,605.7,778,605.2z"/>
		</g>
	</g>
</g>
</svg>
